<svg xmlns="http://www.w3.org/2000/svg" xmlns:xlink="http://www.w3.org/1999/xlink" width="1366" height="768" viewBox="0 0 1366 768">
  <defs>
    <clipPath id="clip-Calculator">
      <rect width="1366" height="768"/>
    </clipPath>
  </defs>
  <g id="Calculator" clip-path="url(#clip-Calculator)">
    <rect width="1366" height="768" fill="#fff"/>
    <g id="Calculator-2" data-name="Calculator" transform="translate(531 167)" fill="#202020" stroke="#707070" stroke-width="1">
      <rect width="304" height="439" stroke="none"/>
      <rect x="0.5" y="0.5" width="303" height="438" fill="none"/>
    </g>
    <g id="Group_1" data-name="Group 1" transform="translate(538.031 540)">
      <g id="Button" transform="translate(-0.031)">
        <g id="Button-2" data-name="Button" transform="translate(0.031)" fill="#4a4949" stroke="rgba(112,112,112,0)" stroke-width="1">
          <rect width="68" height="58" rx="6" stroke="none"/>
          <rect x="0.5" y="0.5" width="67" height="57" rx="5.5" fill="none"/>
        </g>
      </g>
      <g id="Text" transform="translate(27 17)">
        <text id="_" data-name="%" transform="translate(0 17)" fill="#fff" font-size="16" font-family="Poppins-Regular, Poppins"><tspan x="0" y="0">%</tspan></text>
      </g>
    </g>
    <g id="Group_2" data-name="Group 2" transform="translate(537.689 282)">
      <g id="Button-3" data-name="Button" transform="translate(0.28)">
        <g id="Button-4" data-name="Button" fill="#4a4949" stroke="rgba(112,112,112,0)" stroke-width="1">
          <rect width="68" height="58" rx="6" stroke="none"/>
          <rect x="0.5" y="0.5" width="67" height="57" rx="5.5" fill="none"/>
        </g>
      </g>
      <g id="Text-2" data-name="Text" transform="translate(24.311 17)">
        <text id="CE" transform="translate(0 16)" fill="#fff" font-size="16" font-family="Poppins-Regular, Poppins"><tspan x="0" y="0">CE</tspan></text>
      </g>
    </g>
    <g id="Group_3" data-name="Group 3" transform="translate(611.378 282)">
      <g id="Button-5" data-name="Button" transform="translate(-0.409)">
        <g id="Button-6" data-name="Button" fill="#4a4949" stroke="rgba(112,112,112,0)" stroke-width="1">
          <rect width="69" height="58" rx="6" stroke="none"/>
          <rect x="0.5" y="0.5" width="68" height="57" rx="5.5" fill="none"/>
        </g>
      </g>
      <g id="Text-3" data-name="Text" transform="translate(28.622 17)">
        <text id="C" transform="translate(0 17)" fill="#fff" font-size="16" font-family="Poppins-Regular, Poppins"><tspan x="0" y="0">C</tspan></text>
      </g>
    </g>
    <g id="Group_8" data-name="Group 8" transform="translate(538 347)">
      <g id="Button-7" data-name="Button" transform="translate(0)">
        <g id="Button-8" data-name="Button" fill="#474747" stroke="rgba(112,112,112,0)" stroke-width="1">
          <rect width="68" height="58" rx="6" stroke="none"/>
          <rect x="0.5" y="0.5" width="67" height="57" rx="5.5" fill="none"/>
        </g>
      </g>
      <g id="Text-4" data-name="Text" transform="translate(30 17)">
        <text id="_7" data-name="7" transform="translate(0 16)" fill="#fff" font-size="16" font-family="Poppins-Regular, Poppins"><tspan x="0" y="0">7</tspan></text>
      </g>
    </g>
    <g id="Group_7" data-name="Group 7" transform="translate(611.689 347)">
      <g id="Button-9" data-name="Button" transform="translate(0.28)">
        <g id="Button-10" data-name="Button" fill="#4a4949" stroke="rgba(112,112,112,0)" stroke-width="1">
          <rect width="68" height="58" rx="6" stroke="none"/>
          <rect x="0.5" y="0.5" width="67" height="57" rx="5.5" fill="none"/>
        </g>
      </g>
      <g id="Text-5" data-name="Text" transform="translate(27.311 17)">
        <text id="_8" data-name="8" transform="translate(0 16)" fill="#fff" font-size="16" font-family="Poppins-Regular, Poppins"><tspan x="0" y="0">8</tspan></text>
      </g>
    </g>
    <g id="Group_6" data-name="Group 6" transform="translate(685.378 347)">
      <g id="Button-11" data-name="Button" transform="translate(-0.409)">
        <g id="Button-12" data-name="Button" fill="#4a4949" stroke="rgba(112,112,112,0)" stroke-width="1">
          <rect width="69" height="58" rx="6" stroke="none"/>
          <rect x="0.5" y="0.5" width="68" height="57" rx="5.5" fill="none"/>
        </g>
      </g>
      <g id="Text-6" data-name="Text" transform="translate(27.622 17)">
        <text id="_9" data-name="9" transform="translate(0 16)" fill="#fff" font-size="16" font-family="Poppins-Regular, Poppins"><tspan x="0" y="0">9</tspan></text>
      </g>
    </g>
    <g id="Group_10" data-name="Group 10" transform="translate(611.689 411)">
      <g id="Button-13" data-name="Button" transform="translate(0.28)">
        <g id="Button-14" data-name="Button" fill="#4a4949" stroke="rgba(112,112,112,0)" stroke-width="1">
          <rect width="68" height="58" rx="6" stroke="none"/>
          <rect x="0.5" y="0.5" width="67" height="57" rx="5.5" fill="none"/>
        </g>
      </g>
      <g id="Text-7" data-name="Text" transform="translate(27.311 18)">
        <text id="_5" data-name="5" transform="translate(0 16)" fill="#fff" font-size="16" font-family="Poppins-Regular, Poppins"><tspan x="0" y="0">5</tspan></text>
      </g>
    </g>
    <g id="Group_13" data-name="Group 13" transform="translate(538 476)">
      <g id="Button-15" data-name="Button" transform="translate(-0.031)">
        <g id="Button-16" data-name="Button" fill="#4a4949" stroke="rgba(112,112,112,0)" stroke-width="1">
          <rect width="67" height="57" rx="6" stroke="none"/>
          <rect x="0.5" y="0.5" width="66" height="56" rx="5.5" fill="none"/>
        </g>
      </g>
      <g id="Text-8" data-name="Text" transform="translate(27 17)">
        <text id="_1" data-name="1" transform="translate(0 18)" fill="#fff" font-size="16" font-family="Poppins-Regular, Poppins"><tspan x="0" y="0">1</tspan></text>
      </g>
    </g>
    <g id="Group_14" data-name="Group 14" transform="translate(611.689 476)">
      <g id="Button-17" data-name="Button" transform="translate(0.28)">
        <g id="Button-18" data-name="Button" fill="#4a4949" stroke="rgba(112,112,112,0)" stroke-width="1">
          <rect width="68" height="57" rx="6" stroke="none"/>
          <rect x="0.5" y="0.5" width="67" height="56" rx="5.5" fill="none"/>
        </g>
      </g>
      <g id="Text-9" data-name="Text" transform="translate(27.311 17)">
        <text id="_2" data-name="2" transform="translate(0 15)" fill="#fff" font-size="16" font-family="Poppins-Regular, Poppins"><tspan x="0" y="0">2</tspan></text>
      </g>
    </g>
    <g id="Group_15" data-name="Group 15" transform="translate(685.378 476)">
      <g id="Button-19" data-name="Button" transform="translate(-0.409)">
        <g id="Button-20" data-name="Button" fill="#4a4949" stroke="rgba(112,112,112,0)" stroke-width="1">
          <rect width="69" height="57" rx="6" stroke="none"/>
          <rect x="0.5" y="0.5" width="68" height="56" rx="5.5" fill="none"/>
        </g>
      </g>
      <g id="Text-10" data-name="Text" transform="translate(27.622 17)">
        <text id="_3" data-name="3" transform="translate(0 17)" fill="#fff" font-size="16" font-family="Poppins-Regular, Poppins"><tspan x="0" y="0">3</tspan></text>
      </g>
    </g>
    <g id="Group_9" data-name="Group 9" transform="translate(538 411)">
      <g id="Button-21" data-name="Button" transform="translate(0)">
        <g id="Button-22" data-name="Button" fill="#4a4949" stroke="rgba(112,112,112,0)" stroke-width="1">
          <rect width="68" height="58" rx="6" stroke="none"/>
          <rect x="0.5" y="0.5" width="67" height="57" rx="5.5" fill="none"/>
        </g>
      </g>
      <g id="Text-11" data-name="Text" transform="translate(27 17)">
        <text id="_4" data-name="4" transform="translate(0 16)" fill="#fff" font-size="16" font-family="Poppins-Regular, Poppins"><tspan x="0" y="0">4</tspan></text>
      </g>
    </g>
    <g id="Group_11" data-name="Group 11" transform="translate(685.378 411)">
      <g id="Button-23" data-name="Button" transform="translate(-0.409)">
        <g id="Button-24" data-name="Button" fill="#4a4949" stroke="rgba(112,112,112,0)" stroke-width="1">
          <rect width="69" height="58" rx="6" stroke="none"/>
          <rect x="0.5" y="0.5" width="68" height="57" rx="5.5" fill="none"/>
        </g>
      </g>
      <g id="Text-12" data-name="Text" transform="translate(27.622 18)">
        <text id="_6" data-name="6" transform="translate(0 15)" fill="#fff" font-size="16" font-family="Poppins-Regular, Poppins"><tspan x="0" y="0">6</tspan></text>
      </g>
    </g>
    <g id="Group_18" data-name="Group 18" transform="translate(611.689 540)">
      <g id="Button-25" data-name="Button" transform="translate(0.28)">
        <g id="Button-26" data-name="Button" fill="#4a4949" stroke="rgba(112,112,112,0)" stroke-width="1">
          <rect width="68" height="58" rx="6" stroke="none"/>
          <rect x="0.5" y="0.5" width="67" height="57" rx="5.5" fill="none"/>
        </g>
      </g>
      <g id="Text-13" data-name="Text" transform="translate(27.311 18)">
        <text id="_0" data-name="0" transform="translate(0 16)" fill="#fff" font-size="16" font-family="Poppins-Regular, Poppins"><tspan x="0" y="0">0</tspan></text>
      </g>
    </g>
    <g id="Group_17" data-name="Group 17" transform="translate(759 283)">
      <g id="Button-27" data-name="Button" transform="translate(0)">
        <g id="Button-28" data-name="Button" fill="#4a4949" stroke="rgba(112,112,112,0)" stroke-width="1">
          <rect width="68" height="58" rx="6" stroke="none"/>
          <rect x="0.5" y="0.5" width="67" height="57" rx="5.5" fill="none"/>
        </g>
      </g>
    </g>
    <g id="Group_19" data-name="Group 19" transform="translate(685.378 540)">
      <g id="Button-29" data-name="Button" transform="translate(-0.409)">
        <g id="Button-30" data-name="Button" fill="#4a4949" stroke="rgba(112,112,112,0)" stroke-width="1">
          <rect width="69" height="58" rx="6" stroke="none"/>
          <rect x="0.5" y="0.5" width="68" height="57" rx="5.5" fill="none"/>
        </g>
      </g>
      <g id="Text-14" data-name="Text" transform="translate(28.622 18)">
        <text id="_." data-name="." transform="translate(0 19)" fill="#fff" font-size="16" font-family="Poppins-Regular, Poppins"><tspan x="0" y="0">.</tspan></text>
      </g>
    </g>
    <g id="Group_12" data-name="Group 12" transform="translate(759.066 411)">
      <g id="Button-31" data-name="Button" transform="translate(-0.098)">
        <g id="Button-32" data-name="Button" fill="#4a4949" stroke="rgba(112,112,112,0)" stroke-width="1">
          <rect width="68" height="58" rx="6" stroke="none"/>
          <rect x="0.5" y="0.5" width="67" height="57" rx="5.5" fill="none"/>
        </g>
      </g>
      <g id="Text-15" data-name="Text" transform="translate(28.934 17)">
        <text id="_2-2" data-name="*" transform="translate(0 19)" fill="#fff" font-size="18" font-family="Poppins-Regular, Poppins"><tspan x="0" y="0">*</tspan></text>
      </g>
    </g>
    <g id="Group_16" data-name="Group 16" transform="translate(759.066 476)">
      <g id="Button-33" data-name="Button" transform="translate(-0.098)">
        <g id="Button-34" data-name="Button" fill="#4a4949" stroke="rgba(112,112,112,0)" stroke-width="1">
          <rect width="68" height="57" rx="6" stroke="none"/>
          <rect x="0.5" y="0.5" width="67" height="56" rx="5.5" fill="none"/>
        </g>
      </g>
      <g id="Text-16" data-name="Text" transform="translate(28.934 17)">
        <text id="_3-2" data-name="+" transform="translate(0 16)" fill="#fff" font-size="16" font-family="Poppins-Regular, Poppins"><tspan x="0" y="0">+</tspan></text>
      </g>
    </g>
    <g id="Group_20" data-name="Group 20" transform="translate(685.098 283)">
      <g id="Button-35" data-name="Button" transform="translate(-0.098)">
        <g id="Button-36" data-name="Button" fill="#4a4949" stroke="rgba(112,112,112,0)" stroke-width="1">
          <rect width="68" height="58" rx="6" stroke="none"/>
          <rect x="0.5" y="0.5" width="67" height="57" rx="5.5" fill="none"/>
        </g>
      </g>
      <g id="Text-17" data-name="Text" transform="translate(30.934 18)">
        <text id="_-" data-name="-" transform="translate(0 16)" fill="#fff" font-size="16" font-family="Poppins-Regular, Poppins"><tspan x="0" y="0">-</tspan></text>
      </g>
    </g>
    <g id="Group_5" data-name="Group 5" transform="translate(759.066 347)">
      <g id="Button-37" data-name="Button" transform="translate(-0.098)">
        <g id="Button-38" data-name="Button" fill="#4a4949" stroke="rgba(112,112,112,0)" stroke-width="1">
          <rect width="68" height="58" rx="6" stroke="none"/>
          <rect x="-0.5" y="-0.5" width="69" height="59" rx="6.5" fill="none"/>
        </g>
      </g>
      <g id="Text-18" data-name="Text" transform="translate(28.934 17)">
        <text id="_4-2" data-name="/" transform="translate(0 18)" fill="#fff" font-size="16" font-family="Poppins-Regular, Poppins"><tspan x="0" y="0">/</tspan></text>
      </g>
    </g>
    <g id="Group_4" data-name="Group 4" transform="translate(759.066 540)">
      <g id="Button-39" data-name="Button" transform="translate(-0.098)">
        <g id="Button-40" data-name="Button" fill="#ec5151" stroke="rgba(112,112,112,0)" stroke-width="1">
          <rect width="68" height="58" rx="6" stroke="none"/>
          <rect x="0.5" y="0.5" width="67" height="57" rx="5.5" fill="none"/>
        </g>
      </g>
      <text id="_5-2" data-name="=" transform="translate(27.934 35)" fill="#fff" font-size="16" font-family="Poppins-Regular, Poppins"><tspan x="0" y="0">=</tspan></text>
    </g>
    <text id="_16_25_" data-name="16 + 25 = " transform="translate(762 204)" fill="#fff" font-size="14" font-family="Poppins-Regular, Poppins"><tspan x="0" y="0">16 + 25 = </tspan></text>
    <text id="_41" data-name="41" transform="translate(774 262)" fill="#fff" font-size="56" font-family="Poppins-Regular, Poppins"><tspan x="0" y="0">41</tspan></text>
    <g id="Layer_2" data-name="Layer 2" transform="translate(781 300)">
      <g id="backspace">
        <g id="backspace-2" data-name="backspace">
          <rect id="Rectangle_1" data-name="Rectangle 1" width="24" height="24" fill="#fff" opacity="0"/>
          <path id="Path_1" data-name="Path 1" d="M20.14,4H10.37a3,3,0,0,0-2,.78l-.1.11-6,7.48a1,1,0,0,0,.11,1.37l6,5.48a3,3,0,0,0,2,.78h9.77A1.84,1.84,0,0,0,22,18.18V5.82A1.84,1.84,0,0,0,20.14,4ZM20,18H10.37a1,1,0,0,1-.67-.26L4.37,12.89,9.75,6.22A1,1,0,0,1,10.37,6H20Z" fill="#fff"/>
          <path id="Path_2" data-name="Path 2" d="M11.29,14.71a1,1,0,0,0,1.42,0L14,13.41l1.29,1.3a1,1,0,1,0,1.42-1.42L15.41,12l1.3-1.29a1,1,0,0,0-1.42-1.42L14,10.59l-1.29-1.3a1,1,0,0,0-1.42,1.42L12.59,12l-1.3,1.29a1,1,0,0,0,0,1.42Z" fill="#fff"/>
        </g>
      </g>
    </g>
  </g>
</svg>
